<svg xmlns="http://www.w3.org/2000/svg" width="383.953" height="511.936" viewBox="-0.001 0 383.953 511.936"><path fill="#f60" d="M383.952 178.978v25.997c-1.209 7.676-2.212 15.391-3.664 23.021-6.555 34.465-19.789 66.502-36.09 97.336-32.48 61.442-74.11 116.336-120.572 167.755-7.299 8.078-14.754 15.756-25.652 18.849h-11.999c-7.754-2.432-14.364-6.615-19.891-12.613-49.02-53.19-92.667-110.295-126.592-174.415-15.601-29.487-28.309-60.151-35.067-92.988-1.833-8.908-2.97-17.96-4.426-26.946v-25.997c.976-6.707 1.846-13.431 2.944-20.117C14.977 85.571 72.351 23.546 144.689 6.023 155.944 3.296 167.54 1.973 178.978 0h25.997c6.722.979 13.461 1.857 20.165 2.952 74.366 12.146 137.197 71.398 153.652 145.143 2.269 10.171 3.466 20.582 5.16 30.883zM192.185 63.996c-70.561-.104-127.953 56.981-128.189 127.503-.237 70.752 57.029 128.333 127.752 128.456 70.512.122 127.959-57.017 128.207-127.52.249-70.727-57.058-128.334-127.77-128.439z"/><path fill="#f60" d="M255.963 191.851c.043 35.243-28.573 64.02-63.754 64.112-35.479.092-64.273-28.659-64.222-64.128.05-35.236 28.725-63.847 63.988-63.848 35.244 0 63.945 28.646 63.988 63.864z"/></svg>